# xmcd
#
# Track frame offsets: 
#        150
#        13921
#        25605
#        34848
#        50235
#        64427
#        77541
#        89141
#        104432
#
# Disc length: 1596 seconds
#
# Revision: 0
# Processed by: cddbd v1.5.2PL0 Copyright (c) Steve Scherf et al.
# Submitted via: ExactAudioCopy v1.3
#
DISCID=79063a09
DTITLE=Little Butter - Little Butter's Boogie
DYEAR=2019
DGENRE=Blues, Boogie
TTITLE0=Little Butter's Boogie
TTITLE1=Chromatic Jump And Butter
TTITLE2=Don't Blame Your Harp
TTITLE3=Welcome To The Company
TTITLE4=In The Hat (Sombrera)
TTITLE5=Coconut Crazy
TTITLE6=Where You Can Never Go
TTITLE7=Shrimp Shack
TTITLE8=Be Yourself And Show The Word
EXTD=
EXTT0=
EXTT1=
EXTT2=
EXTT3=
EXTT4=
EXTT5=
EXTT6=
EXTT7=
EXTT8=
PLAYORDER=
